<?xml version="1.0" encoding="utf-8"?>
<!-- Generator: Adobe Illustrator 25.0.0, SVG Export Plug-In . SVG Version: 6.00 Build 0)  -->
<svg version="1.1" id="Layer_1" xmlns="http://www.w3.org/2000/svg" xmlns:xlink="http://www.w3.org/1999/xlink" x="0px" y="0px"
	 viewBox="0 0 670 670" style="enable-background:new 0 0 670 670;" xml:space="preserve">
<style type="text/css">
	.st0{fill:#FFFFFF;}
</style>
<g>
	<path d="M329,662c-79.87,0-154.95-31.1-211.42-87.58S30,442.87,30,363c0-79.87,31.1-154.95,87.58-211.42S249.13,64,329,64
		c79.87,0,154.95,31.1,211.42,87.58S628,283.13,628,363c0,79.87-31.1,154.95-87.58,211.42S408.87,662,329,662z"/>
	<path d="M329,64.5c40.3,0,79.39,7.89,116.19,23.46c35.55,15.03,67.47,36.56,94.88,63.97c27.41,27.41,48.94,59.34,63.97,94.88
		c15.57,36.8,23.46,75.89,23.46,116.19s-7.89,79.39-23.46,116.19c-15.03,35.55-36.56,67.47-63.97,94.88
		c-27.41,27.41-59.34,48.94-94.88,63.97C408.39,653.61,369.3,661.5,329,661.5s-79.39-7.89-116.19-23.46
		c-35.55-15.03-67.47-36.56-94.88-63.97c-27.41-27.41-48.94-59.34-63.97-94.88C38.39,442.39,30.5,403.3,30.5,363
		s7.89-79.39,23.46-116.19c15.03-35.55,36.56-67.47,63.97-94.88c27.41-27.41,59.34-48.94,94.88-63.97
		C249.61,72.39,288.7,64.5,329,64.5 M329,63.5C163.59,63.5,29.5,197.59,29.5,363S163.59,662.5,329,662.5S628.5,528.41,628.5,363
		S494.41,63.5,329,63.5L329,63.5z"/>
</g>
<g>
	<path class="st0" d="M328.5,629c-70.12,0-136.04-27.3-185.62-76.88C93.3,502.54,66,436.62,66,366.5s27.3-136.04,76.88-185.62
		C192.46,131.3,258.38,104,328.5,104s136.04,27.3,185.62,76.88C563.7,230.46,591,296.38,591,366.5s-27.3,136.04-76.88,185.62
		C464.54,601.7,398.62,629,328.5,629z"/>
	<path d="M328.5,104.5c35.37,0,69.68,6.93,101.98,20.59c31.2,13.2,59.22,32.09,83.28,56.15c24.06,24.06,42.95,52.08,56.15,83.28
		c13.66,32.3,20.59,66.61,20.59,101.98s-6.93,69.68-20.59,101.98c-13.2,31.2-32.09,59.22-56.15,83.28
		c-24.06,24.06-52.08,42.95-83.28,56.15c-32.3,13.66-66.61,20.59-101.98,20.59s-69.68-6.93-101.98-20.59
		c-31.2-13.2-59.22-32.09-83.28-56.15c-24.06-24.06-42.95-52.08-56.15-83.28C73.43,436.18,66.5,401.87,66.5,366.5
		s6.93-69.68,20.59-101.98c13.2-31.2,32.09-59.22,56.15-83.28c24.06-24.06,52.08-42.95,83.28-56.15
		C258.82,111.43,293.13,104.5,328.5,104.5 M328.5,103.5c-145.25,0-263,117.75-263,263s117.75,263,263,263s263-117.75,263-263
		S473.75,103.5,328.5,103.5L328.5,103.5z"/>
</g>
<g>
	<circle cx="329" cy="261" r="66"/>
	<path d="M329,195.5c36.12,0,65.5,29.38,65.5,65.5s-29.38,65.5-65.5,65.5s-65.5-29.38-65.5-65.5S292.88,195.5,329,195.5 M329,194.5
		c-36.73,0-66.5,29.77-66.5,66.5s29.77,66.5,66.5,66.5s66.5-29.77,66.5-66.5S365.73,194.5,329,194.5L329,194.5z"/>
</g>
<g>
	<path d="M205,497v-60.69C205,378.79,251.79,332,309.31,332h36.12C404.19,332,452,379.81,452,438.58V497H205z"/>
	<path d="M345.42,332.5c58.49,0,106.08,47.59,106.08,106.08v57.92h-246v-60.19c0-57.24,46.57-103.81,103.81-103.81H345.42
		 M345.42,331.5h-36.12c-57.88,0-104.81,46.92-104.81,104.81v61.19h248v-58.92C452.5,379.44,404.56,331.5,345.42,331.5L345.42,331.5
		z"/>
</g>
<g>
	<ellipse class="st0" cx="328.5" cy="275.5" rx="51.5" ry="55.5"/>
	<path d="M328.5,220.5c28.12,0,51,24.67,51,55s-22.88,55-51,55s-51-24.67-51-55S300.38,220.5,328.5,220.5 M328.5,219.5
		c-28.72,0-52,25.07-52,56s23.28,56,52,56s52-25.07,52-56S357.22,219.5,328.5,219.5L328.5,219.5z"/>
</g>
<g>
	<path class="st0" d="M422.5,521.5h-187V412.62c0-27.13,21.99-49.12,49.12-49.12h83.81c29.87,0,54.08,24.21,54.08,54.08V521.5z"/>
</g>
</svg>
