<?xml version="1.0" encoding="utf-8"?>
<!-- Generator: Adobe Illustrator 25.0.0, SVG Export Plug-In . SVG Version: 6.00 Build 0)  -->
<svg version="1.1" id="Layer_1" xmlns="http://www.w3.org/2000/svg" xmlns:xlink="http://www.w3.org/1999/xlink" x="0px" y="0px"
	 viewBox="0 0 500 500" style="enable-background:new 0 0 500 500;" xml:space="preserve">
<style type="text/css">
	.st0{fill:#FFFFFF;}
</style>
<path d="M128.52,167.41l132.01,93.37c3.45,2.44,8.23,1.62,10.67-1.83l63.38-89.6c28.25-39.95,18.78-95.23-21.17-123.49l0,0
	c-39.86-28.19-95.03-18.74-123.23,21.13l-63.49,89.76C124.25,160.19,125.07,164.97,128.52,167.41z"/>
<path d="M88.01,363.21l-3.2-2.26c-38.09-26.94-47.13-79.66-20.19-117.75l64.01-90.5c2.77-3.91,8.19-4.84,12.1-2.07l130.33,92.18
	c3.91,2.77,4.84,8.19,2.07,12.1l-61.62,87.12C183.26,381.99,127.97,391.47,88.01,363.21z"/>
<path class="st0" d="M307.73,62.28l-4.93-3.49c-32.48-22.97-77.43-15.27-100.4,17.21l-60.29,85.25c-2.08,2.94-1.38,7,1.56,9.08
	L256.3,250c2.94,2.08,7,1.38,9.08-1.56l59.78-84.51C348.41,131.05,340.61,85.54,307.73,62.28z"/>
<ellipse cx="403" cy="299" rx="86.5" ry="80"/>
<rect x="389.4" y="209.44" transform="matrix(0.9081 -0.4188 0.4188 0.9081 -88.1269 196.4702)" class="st0" width="28.14" height="179.07"/>
</svg>
