<?xml version="1.0" encoding="utf-8"?>
<!-- Generator: Adobe Illustrator 25.0.0, SVG Export Plug-In . SVG Version: 6.00 Build 0)  -->
<svg version="1.1" id="Layer_1" xmlns="http://www.w3.org/2000/svg" xmlns:xlink="http://www.w3.org/1999/xlink" x="0px" y="0px"
	 viewBox="0 0 750 750" style="enable-background:new 0 0 750 750;" xml:space="preserve">
<style type="text/css">
	.st0{fill:#666666;}
	.st1{fill:#FFFFFF;}
	.st2{fill:#C1272D;}
	.st3{fill:#FFFFFF;stroke:#000000;stroke-miterlimit:10;}
	.st4{fill:#FFFFFF;stroke:#534741;stroke-width:5;stroke-miterlimit:10;}
</style>
<ellipse class="st0" cx="288.5" cy="397.5" rx="262.5" ry="268.5"/>
<ellipse class="st1" cx="306.5" cy="418.5" rx="244" ry="248"/>
<rect x="230.5" y="240.5" class="st2" width="116" height="330"/>
<rect x="232" y="226" transform="matrix(-1.836970e-16 1 -1 -1.836970e-16 686.5 109.5)" class="st2" width="113" height="344"/>
<path class="st3" d="M266,733"/>
<path class="st3" d="M1326,996"/>
<polyline class="st4" points="551,408 575,368 602.27,440.5 633,322 665.73,408 675.35,381.25 754.19,381.25 "/>
<path class="st0" d="M163.21,633.97c-19.3-9.08-29.25-30.74-23.64-51.33c6.9-25.31,25.53-55.93,74.35-65.72
	C252.46,509.2,302.27,529.22,321,535c2.98,0.92,2.87-1.85,0.11-0.39c-11.83,6.27-36.85,18.28-62.11,22.6
	c-34.83,5.94-47.96,25.3,7,33.8c110,17,189.46-57.43,224.31-54.32c2.91,0.26-45.32,52.18-47.31,54.32
	c-17.57,18.95-43.93,48.91-116.05,69.99C270.15,677.59,200.72,651.62,163.21,633.97z"/>
</svg>
