<?xml version="1.0" encoding="utf-8"?>
<!-- Generator: Adobe Illustrator 25.0.0, SVG Export Plug-In . SVG Version: 6.00 Build 0)  -->
<svg version="1.1" id="Layer_1" xmlns="http://www.w3.org/2000/svg" xmlns:xlink="http://www.w3.org/1999/xlink" x="0px" y="0px"
	 viewBox="0 0 850 850" style="enable-background:new 0 0 850 850;" xml:space="preserve">
<style type="text/css">
	.st0{fill:#FFFFFF;}
	.st1{fill:#1A1A1A;}
	.st2{fill:#333333;}
	.st3{fill:#4D4D4D;}
	.st4{fill:#808080;}
	.st5{fill:#B3B3B3;}
</style>
<rect x="111" y="325" width="485" height="118"/>
<rect x="83" y="316" class="st0" width="82" height="332"/>
<path d="M170.77,612h-24.12C120.34,612,99,590.66,99,564.35V396.77c0-39.64,32.13-71.77,71.77-71.77h0
	c5.65,0,10.23,4.58,10.23,10.23v266.54C181,607.42,176.42,612,170.77,612z"/>
<path d="M614.62,604h-35.27c-4.06,0-7.35-3.29-7.35-7.35V332.35c0-4.06,3.29-7.35,7.35-7.35h0c41.23,0,74.65,33.42,74.65,74.65
	v164.96C654,586.37,636.37,604,614.62,604z"/>
<circle class="st0" cx="181" cy="387" r="14"/>
<circle class="st0" cx="226" cy="387" r="14"/>
<rect x="166" y="279" class="st1" width="29" height="46"/>
<rect x="557" y="279" class="st1" width="30" height="46"/>
<path class="st2" d="M292.19,325h-61.38c-2.66,0-4.81-2.15-4.81-4.81V208.31c0-19.5,15.81-35.31,35.31-35.31h0.5
	c19.44,0,35.19,15.76,35.19,35.19v112C297,322.85,294.85,325,292.19,325z"/>
<path class="st3" d="M371,325h-77V115.88C294,98.83,307.83,85,324.88,85h14.54C356.86,85,371,99.14,371,116.58V325z"/>
<path class="st4" d="M447,325h-76V156.08c0-16.06,13.02-29.08,29.08-29.08h23.35c13.02,0,23.58,10.56,23.58,23.58V325z"/>
<path class="st5" d="M519,325h-72V41.31C447,24.02,461.02,10,478.31,10h12.04C506.17,10,519,22.83,519,38.65V325z"/>
<rect x="209" y="443" class="st1" width="88" height="344"/>
<rect x="294" y="443" class="st3" width="77" height="344"/>
<rect x="370" y="443" class="st4" width="79" height="344"/>
<rect x="449" y="443" class="st5" width="80" height="344"/>
</svg>
